999
dxfrw 0.6.3
  0
SECTION
  2
HEADER
  9
$ACADVER
  1
AC1021
  9
$DWGCODEPAGE
  3
ANSI_1252
  9
$INSBASE
 10
0
 20
0
 30
0
  9
$EXTMIN
 10
-352.4162846577728
 20
-16.41628465777284
 30
0
  9
$EXTMAX
 10
17.25
 20
150
 30
0
  9
$LIMMIN
 10
0
 20
0
  9
$LIMMAX
 10
420
 20
297
  9
$ORTHOMODE
 70
    0
  9
$REGENMODE
 70
    1
  9
$FILLMODE
 70
    1
  9
$QTEXTMODE
 70
    0
  9
$MIRRTEXT
 70
    0
  9
$LTSCALE
 40
1
  9
$ATTMODE
 70
    0
  9
$TEXTSIZE
 40
2.5
  9
$TRACEWID
 40
15.68
  9
$TEXTSTYLE
  7
STANDARD
  9
$CLAYER
  8
front panel
  9
$CELTYPE
  6
BYLAYER
  9
$CECOLOR
 62
  256
  9
$CELTSCALE
 40
1
  9
$DISPSILH
 70
    0
  9
$DIMSCALE
 40
1
  9
$DIMASZ
 40
2.5
  9
$DIMEXO
 40
0.625
  9
$DIMDLI
 40
3.75
  9
$DIMRND
 40
0
  9
$DIMDLE
 40
0
  9
$DIMEXE
 40
1.25
  9
$DIMTP
 40
0
  9
$DIMTM
 40
0
  9
$DIMTXT
 40
2.5
  9
$DIMCEN
 40
2.5
  9
$DIMTSZ
 40
0
  9
$DIMTOL
 70
    0
  9
$DIMLIM
 70
    0
  9
$DIMTIH
 70
    0
  9
$DIMTOH
 70
    0
  9
$DIMSE1
 70
    0
  9
$DIMSE2
 70
    0
  9
$DIMTAD
 70
    1
  9
$DIMZIN
 70
    8
  9
$DIMBLK
  1

  9
$DIMASO
 70
    1
  9
$DIMSHO
 70
    1
  9
$DIMPOST
  1

  9
$DIMAPOST
  1

  9
$DIMALT
 70
    0
  9
$DIMALTD
 70
    3
  9
$DIMALTF
 40
0.03937
  9
$DIMLFAC
 40
1
  9
$DIMTOFL
 70
    1
  9
$DIMTVP
 40
0
  9
$DIMTIX
 70
    0
  9
$DIMSOXD
 70
    0
  9
$DIMSAH
 70
    0
  9
$DIMBLK1
  1

  9
$DIMBLK2
  1

  9
$DIMSTYLE
  2
STANDARD
  9
$DIMCLRD
 70
    0
  9
$DIMCLRE
 70
    0
  9
$DIMCLRT
 70
    0
  9
$DIMTFAC
 40
1
  9
$DIMGAP
 40
0.625
  9
$DIMJUST
 70
    0
  9
$DIMSD1
 70
    0
  9
$DIMSD2
 70
    0
  9
$DIMTOLJ
 70
    0
  9
$DIMTZIN
 70
    8
  9
$DIMALTZ
 70
    0
  9
$DIMALTTZ
 70
    0
  9
$DIMUPT
 70
    0
  9
$DIMDEC
 70
    2
  9
$DIMTDEC
 70
    2
  9
$DIMALTU
 70
    2
  9
$DIMALTTD
 70
    3
  9
$DIMTXSTY
  7
standard
  9
$DIMAUNIT
 70
    0
  9
$DIMADEC
 70
    0
  9
$DIMALTRND
 40
0
  9
$DIMAZIN
 70
    0
  9
$DIMDSEP
 70
   44
  9
$DIMATFIT
 70
    3
  9
$DIMFRAC
 70
    0
  9
$DIMLDRBLK
  1
STANDARD
  9
$DIMLUNIT
 70
    2
  9
$DIMLWD
 70
   -2
  9
$DIMLWE
 70
   -2
  9
$DIMTMOVE
 70
    0
  9
$DIMFXL
 40
1
  9
$DIMFXLON
 70
    0
  9
$DIMJOGANG
 40
0.7854
  9
$DIMTFILL
 70
    0
  9
$DIMTFILLCLR
 70
    0
  9
$DIMARCSYM
 70
    0
  9
$DIMLTYPE
  6

  9
$DIMLTEX1
  6

  9
$DIMLTEX2
  6

  9
$LUNITS
 70
    2
  9
$LUPREC
 70
    0
  9
$SKETCHINC
 40
1
  9
$FILLETRAD
 40
0
  9
$AUNITS
 70
    0
  9
$AUPREC
 70
    2
  9
$MENU
  1
.
  9
$ELEVATION
 40
0
  9
$PELEVATION
 40
0
  9
$THICKNESS
 40
0
  9
$LIMCHECK
 70
    0
  9
$CHAMFERA
 40
0
  9
$CHAMFERB
 40
0
  9
$CHAMFERC
 40
0
  9
$CHAMFERD
 40
0
  9
$SKPOLY
 70
    0
  9
$USRTIMER
 70
    1
  9
$ANGBASE
 50
0
  9
$ANGDIR
 70
    0
  9
$PDMODE
 70
   34
  9
$PDSIZE
 40
0
  9
$PLINEWID
 40
0
  9
$SPLFRAME
 70
    0
  9
$SPLINETYPE
 70
    2
  9
$SPLINESEGS
 70
    8
  9
$HANDSEED
  5
20000
  9
$SURFTAB1
 70
    6
  9
$SURFTAB2
 70
    6
  9
$SURFTYPE
 70
    6
  9
$SURFU
 70
    6
  9
$SURFV
 70
    6
  9
$UCSBASE
  2

  9
$UCSNAME
  2

  9
$UCSORG
 10
0
 20
0
 30
0
  9
$UCSXDIR
 10
1
 20
0
 30
0
  9
$UCSYDIR
 10
0
 20
1
 30
0
  9
$UCSORTHOREF
  2

  9
$UCSORTHOVIEW
 70
    0
  9
$UCSORGTOP
 10
0
 20
0
 30
0
  9
$UCSORGBOTTOM
 10
0
 20
0
 30
0
  9
$UCSORGLEFT
 10
0
 20
0
 30
0
  9
$UCSORGRIGHT
 10
0
 20
0
 30
0
  9
$UCSORGFRONT
 10
0
 20
0
 30
0
  9
$UCSORGBACK
 10
0
 20
0
 30
0
  9
$PUCSBASE
  2

  9
$PUCSNAME
  2

  9
$PUCSORG
 10
0
 20
0
 30
0
  9
$PUCSXDIR
 10
1
 20
0
 30
0
  9
$PUCSYDIR
 10
0
 20
1
 30
0
  9
$PUCSORTHOREF
  2

  9
$PUCSORTHOVIEW
 70
    0
  9
$PUCSORGTOP
 10
0
 20
0
 30
0
  9
$PUCSORGBOTTOM
 10
0
 20
0
 30
0
  9
$PUCSORGLEFT
 10
0
 20
0
 30
0
  9
$PUCSORGRIGHT
 10
0
 20
0
 30
0
  9
$PUCSORGFRONT
 10
0
 20
0
 30
0
  9
$PUCSORGBACK
 10
0
 20
0
 30
0
  9
$USERI1
 70
    0
  9
$USERI2
 70
    0
  9
$USERI3
 70
    0
  9
$USERI4
 70
    0
  9
$USERI5
 70
    0
  9
$USERR1
 40
0
  9
$USERR2
 40
0
  9
$USERR3
 40
0
  9
$USERR4
 40
0
  9
$USERR5
 40
0
  9
$WORLDVIEW
 70
    1
  9
$SHADEDGE
 70
    3
  9
$SHADEDIF
 70
   70
  9
$TILEMODE
 70
    1
  9
$MAXACTVP
 70
   64
  9
$PINSBASE
 10
188.8672138021611
 20
115.0739230706546
 30
0
  9
$PLIMCHECK
 70
    0
  9
$PEXTMIN
 10
0
 20
0
 30
0
  9
$PEXTMAX
 10
0
 20
0
 30
0
  9
$GRIDMODE
 70
    0
  9
$SNAPSTYLE
 70
    0
  9
$GRIDUNIT
 10
0
 20
0
  9
$PLIMMIN
 10
0
 20
0
  9
$PLIMMAX
 10
297
 20
210
  9
$UNITMODE
 70
    0
  9
$VISRETAIN
 70
    1
  9
$PLINEGEN
 70
    0
  9
$PSLTSCALE
 70
    1
  9
$TREEDEPTH
 70
 3020
  9
$CMLSTYLE
  2
Standard
  9
$CMLJUST
 70
    0
  9
$CMLSCALE
 40
20
  9
$PROXYGRAPHICS
 70
    1
  9
$MEASUREMENT
 70
    1
  9
$CELWEIGHT
370
   -1
  9
$ENDCAPS
280
    0
  9
$JOINSTYLE
280
    0
  9
$LWDISPLAY
290
    0
  9
$INSUNITS
 70
    4
  9
$HYPERLINKBASE
  1

  9
$STYLESHEET
  1

  9
$XEDIT
290
    1
  9
$CEPSNTYPE
380
    0
  9
$PSTYLEMODE
290
    1
  9
$EXTNAMES
290
    1
  9
$PSVPSCALE
 40
0.5004504053648283
  9
$OLESTARTUP
290
    0
  9
$SORTENTS
280
  127
  9
$INDEXCTL
280
    0
  9
$HIDETEXT
280
    1
  9
$XCLIPFRAME
290
    0
  9
$HALOGAP
280
    0
  9
$OBSCOLOR
 70
  257
  9
$OBSLTYPE
280
    0
  9
$INTERSECTIONDISPLAY
280
    0
  9
$INTERSECTIONCOLOR
 70
  257
  9
$DIMASSOC
280
    1
  9
$PROJECTNAME
  1

  9
$CAMERADISPLAY
290
    0
  9
$LENSLENGTH
 40
50
  9
$CAMERAHEIGHT
 40
0
  9
$STEPSPERSEC
 40
2
  9
$STEPSIZE
 40
50
  9
$3DDWFPREC
 40
2
  9
$PSOLWIDTH
 40
5
  9
$PSOLHEIGHT
 40
80
  9
$LOFTANG1
 40
1.570796326794897
  9
$LOFTANG2
 40
1.570796326794897
  9
$LOFTMAG1
 40
0
  9
$LOFTMAG2
 40
0
  9
$LOFTPARAM
 70
    7
  9
$LOFTNORMALS
280
    1
  9
$LATITUDE
 40
1
  9
$LONGITUDE
 40
1
  9
$NORTHDIRECTION
 40
0
  9
$TIMEZONE
 70
-8000
  9
$LIGHTGLYPHDISPLAY
280
    1
  9
$TILEMODELIGHTSYNCH
280
    1
  9
$SOLIDHIST
280
    1
  9
$SHOWHIST
280
    1
  9
$DWFFRAME
280
    2
  9
$DGNFRAME
280
    0
  9
$REALWORLDSCALE
290
    1
  9
$INTERFERECOLOR
 62
    1
  9
$CSHADOW
280
    0
  9
$SHADOWPLANELOCATION
 40
0
  0
ENDSEC
  0
SECTION
  2
CLASSES
  0
ENDSEC
  0
SECTION
  2
TABLES
  0
TABLE
  2
VPORT
  5
8
330
0
100
AcDbSymbolTable
 70
    1
  0
VPORT
  5
31
330
2
100
AcDbSymbolTableRecord
100
AcDbViewportTableRecord
  2
*ACTIVE
 70
    0
 10
0
 20
0
 11
1
 21
1
 12
-8045.134316564005
 22
-6160.688440612076
 13
0
 23
0
 14
10
 24
10
 15
10
 25
10
 16
0
 26
0
 36
1
 17
0
 27
0
 37
0
 40
2512.594501269239
 41
2.096153846153846
 42
50
 43
0
 44
0
 50
0
 51
0
 71
    0
 72
  100
 73
    1
 74
    3
 75
    0
 76
    0
 77
    0
 78
    0
281
    0
 65
    1
110
0
120
0
130
0
111
1
121
0
131
0
112
0
122
1
132
0
 79
    0
146
0
348
10020
 60
    7
 61
    5
292
1
282
    1
141
0
142
0
 63
  250
421
3358443
  0
ENDTAB
  0
TABLE
  2
LTYPE
  5
5
330
0
100
AcDbSymbolTable
 70
    4
  0
LTYPE
  5
14
330
5
100
AcDbSymbolTableRecord
100
AcDbLinetypeTableRecord
  2
ByBlock
 70
    0
  3

 72
   65
 73
    0
 40
0
  0
LTYPE
  5
15
330
5
100
AcDbSymbolTableRecord
100
AcDbLinetypeTableRecord
  2
ByLayer
 70
    0
  3

 72
   65
 73
    0
 40
0
  0
LTYPE
  5
16
330
5
100
AcDbSymbolTableRecord
100
AcDbLinetypeTableRecord
  2
Continuous
 70
    0
  3
Solid line
 72
   65
 73
    0
 40
0
  0
LTYPE
  5
32
330
5
100
AcDbSymbolTableRecord
100
AcDbLinetypeTableRecord
  2
DOT
 70
    0
  3
Dot . . . . . . . . . . . . . . . . . . . . . .
 72
   65
 73
    2
 40
6.35
 49
0
 74
    0
 49
-6.35
 74
    0
  0
LTYPE
  5
33
330
5
100
AcDbSymbolTableRecord
100
AcDbLinetypeTableRecord
  2
DOTTINY
 70
    0
  3
Dot (.15x) .....................................
 72
   65
 73
    2
 40
0.9525
 49
0
 74
    0
 49
-0.9525
 74
    0
  0
LTYPE
  5
34
330
5
100
AcDbSymbolTableRecord
100
AcDbLinetypeTableRecord
  2
DOT2
 70
    0
  3
Dot (.5x) .....................................
 72
   65
 73
    2
 40
3.175
 49
0
 74
    0
 49
-3.175
 74
    0
  0
LTYPE
  5
35
330
5
100
AcDbSymbolTableRecord
100
AcDbLinetypeTableRecord
  2
DOTX2
 70
    0
  3
Dot (2x) .  .  .  .  .  .  .  .  .  .  .  .  .
 72
   65
 73
    2
 40
12.7
 49
0
 74
    0
 49
-12.7
 74
    0
  0
LTYPE
  5
36
330
5
100
AcDbSymbolTableRecord
100
AcDbLinetypeTableRecord
  2
DASHED
 70
    0
  3
Dashed _ _ _ _ _ _ _ _ _ _ _ _ _ _ _ _ _
 72
   65
 73
    2
 40
19.05
 49
12.7
 74
    0
 49
-6.35
 74
    0
  0
LTYPE
  5
37
330
5
100
AcDbSymbolTableRecord
100
AcDbLinetypeTableRecord
  2
DASHEDTINY
 70
    0
  3
Dashed (.15x) _ _ _ _ _ _ _ _ _ _ _ _ _ _ _ _ _
 72
   65
 73
    2
 40
2.8575
 49
1.905
 74
    0
 49
-0.9525
 74
    0
  0
LTYPE
  5
38
330
5
100
AcDbSymbolTableRecord
100
AcDbLinetypeTableRecord
  2
DASHED2
 70
    0
  3
Dashed (.5x) _ _ _ _ _ _ _ _ _ _ _ _ _ _ _ _ _
 72
   65
 73
    2
 40
9.524999999999999
 49
6.35
 74
    0
 49
-3.175
 74
    0
  0
LTYPE
  5
39
330
5
100
AcDbSymbolTableRecord
100
AcDbLinetypeTableRecord
  2
DASHEDX2
 70
    0
  3
Dashed (2x) ____  ____  ____  ____  ____  ___
 72
   65
 73
    2
 40
38.09999999999999
 49
25.4
 74
    0
 49
-12.7
 74
    0
  0
LTYPE
  5
3A
330
5
100
AcDbSymbolTableRecord
100
AcDbLinetypeTableRecord
  2
DASHDOT
 70
    0
  3
Dash dot __ . __ . __ . __ . __ . __ . __ . __
 72
   65
 73
    4
 40
25.4
 49
12.7
 74
    0
 49
-6.35
 74
    0
 49
0
 74
    0
 49
-6.35
 74
    0
  0
LTYPE
  5
3B
330
5
100
AcDbSymbolTableRecord
100
AcDbLinetypeTableRecord
  2
DASHDOTTINY
 70
    0
  3
Dash dot (.15x) _._._._._._._._._._._._._._._.
 72
   65
 73
    4
 40
3.81
 49
1.905
 74
    0
 49
-0.9525
 74
    0
 49
0
 74
    0
 49
-0.9525
 74
    0
  0
LTYPE
  5
3C
330
5
100
AcDbSymbolTableRecord
100
AcDbLinetypeTableRecord
  2
DASHDOT2
 70
    0
  3
Dash dot (.5x) _._._._._._._._._._._._._._._.
 72
   65
 73
    4
 40
12.7
 49
6.35
 74
    0
 49
-3.175
 74
    0
 49
0
 74
    0
 49
-3.175
 74
    0
  0
LTYPE
  5
3D
330
5
100
AcDbSymbolTableRecord
100
AcDbLinetypeTableRecord
  2
DASHDOTX2
 70
    0
  3
Dash dot (2x) ____  .  ____  .  ____  .  ___
 72
   65
 73
    4
 40
50.8
 49
25.4
 74
    0
 49
-12.7
 74
    0
 49
0
 74
    0
 49
-12.7
 74
    0
  0
LTYPE
  5
3E
330
5
100
AcDbSymbolTableRecord
100
AcDbLinetypeTableRecord
  2
DIVIDE
 70
    0
  3
Divide ____ . . ____ . . ____ . . ____ . . ____
 72
   65
 73
    6
 40
31.75
 49
12.7
 74
    0
 49
-6.35
 74
    0
 49
0
 74
    0
 49
-6.35
 74
    0
 49
0
 74
    0
 49
-6.35
 74
    0
  0
LTYPE
  5
3F
330
5
100
AcDbSymbolTableRecord
100
AcDbLinetypeTableRecord
  2
DIVIDETINY
 70
    0
  3
Divide (.15x) __..__..__..__..__..__..__..__.._
 72
   65
 73
    6
 40
4.7625
 49
1.905
 74
    0
 49
-0.9525
 74
    0
 49
0
 74
    0
 49
-0.9525
 74
    0
 49
0
 74
    0
 49
-0.9525
 74
    0
  0
LTYPE
  5
40
330
5
100
AcDbSymbolTableRecord
100
AcDbLinetypeTableRecord
  2
DIVIDE2
 70
    0
  3
Divide (.5x) __..__..__..__..__..__..__..__.._
 72
   65
 73
    6
 40
15.875
 49
6.35
 74
    0
 49
-3.175
 74
    0
 49
0
 74
    0
 49
-3.175
 74
    0
 49
0
 74
    0
 49
-3.175
 74
    0
  0
LTYPE
  5
41
330
5
100
AcDbSymbolTableRecord
100
AcDbLinetypeTableRecord
  2
DIVIDEX2
 70
    0
  3
Divide (2x) ________  .  .  ________  .  .  _
 72
   65
 73
    6
 40
63.5
 49
25.4
 74
    0
 49
-12.7
 74
    0
 49
0
 74
    0
 49
-12.7
 74
    0
 49
0
 74
    0
 49
-12.7
 74
    0
  0
LTYPE
  5
42
330
5
100
AcDbSymbolTableRecord
100
AcDbLinetypeTableRecord
  2
BORDER
 70
    0
  3
Border __ __ . __ __ . __ __ . __ __ . __ __ .
 72
   65
 73
    6
 40
44.45
 49
12.7
 74
    0
 49
-6.35
 74
    0
 49
12.7
 74
    0
 49
-6.35
 74
    0
 49
0
 74
    0
 49
-6.35
 74
    0
  0
LTYPE
  5
43
330
5
100
AcDbSymbolTableRecord
100
AcDbLinetypeTableRecord
  2
BORDERTINY
 70
    0
  3
Border (.15x) __.__.__.__.__.__.__.__.__.__.__.
 72
   65
 73
    6
 40
6.6675
 49
1.905
 74
    0
 49
-0.9525
 74
    0
 49
1.905
 74
    0
 49
-0.9525
 74
    0
 49
0
 74
    0
 49
-0.9525
 74
    0
  0
LTYPE
  5
44
330
5
100
AcDbSymbolTableRecord
100
AcDbLinetypeTableRecord
  2
BORDER2
 70
    0
  3
Border (.5x) __.__.__.__.__.__.__.__.__.__.__.
 72
   65
 73
    6
 40
22.225
 49
6.35
 74
    0
 49
-3.175
 74
    0
 49
6.35
 74
    0
 49
-3.175
 74
    0
 49
0
 74
    0
 49
-3.175
 74
    0
  0
LTYPE
  5
45
330
5
100
AcDbSymbolTableRecord
100
AcDbLinetypeTableRecord
  2
BORDERX2
 70
    0
  3
Border (2x) ____  ____  .  ____  ____  .  ___
 72
   65
 73
    6
 40
88.89999999999999
 49
25.4
 74
    0
 49
-12.7
 74
    0
 49
25.4
 74
    0
 49
-12.7
 74
    0
 49
0
 74
    0
 49
-12.7
 74
    0
  0
LTYPE
  5
46
330
5
100
AcDbSymbolTableRecord
100
AcDbLinetypeTableRecord
  2
CENTER
 70
    0
  3
Center ____ _ ____ _ ____ _ ____ _ ____ _ ____
 72
   65
 73
    4
 40
50.8
 49
31.75
 74
    0
 49
-6.35
 74
    0
 49
6.35
 74
    0
 49
-6.35
 74
    0
  0
LTYPE
  5
47
330
5
100
AcDbSymbolTableRecord
100
AcDbLinetypeTableRecord
  2
CENTERTINY
 70
    0
  3
Center (.15x) ___ _ ___ _ ___ _ ___ _ ___ _ ___
 72
   65
 73
    4
 40
7.62
 49
4.7625
 74
    0
 49
-0.9525
 74
    0
 49
0.9525
 74
    0
 49
-0.9525
 74
    0
  0
LTYPE
  5
48
330
5
100
AcDbSymbolTableRecord
100
AcDbLinetypeTableRecord
  2
CENTER2
 70
    0
  3
Center (.5x) ___ _ ___ _ ___ _ ___ _ ___ _ ___
 72
   65
 73
    4
 40
28.575
 49
19.05
 74
    0
 49
-3.175
 74
    0
 49
3.175
 74
    0
 49
-3.175
 74
    0
  0
LTYPE
  5
49
330
5
100
AcDbSymbolTableRecord
100
AcDbLinetypeTableRecord
  2
CENTERX2
 70
    0
  3
Center (2x) ________  __  ________  __  _____
 72
   65
 73
    4
 40
101.6
 49
63.5
 74
    0
 49
-12.7
 74
    0
 49
12.7
 74
    0
 49
-12.7
 74
    0
  0
ENDTAB
  0
TABLE
  2
LAYER
  5
2
330
0
100
AcDbSymbolTable
 70
    1
  0
LAYER
  5
10
330
2
100
AcDbSymbolTableRecord
100
AcDbLayerTableRecord
  2
0
 70
    1
 62
    7
  6
CONTINUOUS
370
    0
390
F
  0
LAYER
  5
4A
330
2
100
AcDbSymbolTableRecord
100
AcDbLayerTableRecord
  2
case
 70
    0
 62
    5
  6
CONTINUOUS
370
    0
390
F
  0
LAYER
  5
4B
330
2
100
AcDbSymbolTableRecord
100
AcDbLayerTableRecord
  2
front panel
 70
    0
 62
    3
  6
CONTINUOUS
370
    0
390
F
  0
ENDTAB
  0
TABLE
  2
STYLE
  5
3
330
0
100
AcDbSymbolTable
 70
    3
  0
STYLE
  5
4C
330
2
100
AcDbSymbolTableRecord
100
AcDbTextStyleTableRecord
  2
Standard
 70
    0
 40
0
 41
1
 50
0
 71
    0
 42
1
  3
txt
  4

  0
ENDTAB
  0
TABLE
  2
VIEW
  5
6
330
0
100
AcDbSymbolTable
 70
    0
  0
ENDTAB
  0
TABLE
  2
UCS
  5
7
330
0
100
AcDbSymbolTable
 70
    0
  0
ENDTAB
  0
TABLE
  2
APPID
  5
9
330
0
100
AcDbSymbolTable
 70
    1
  0
APPID
  5
12
330
9
100
AcDbSymbolTableRecord
100
AcDbRegAppTableRecord
  2
ACAD
 70
    0
  0
APPID
  5
4D
330
9
100
AcDbSymbolTableRecord
100
AcDbRegAppTableRecord
  2
LibreCad
 70
    0
  0
ENDTAB
  0
TABLE
  2
DIMSTYLE
  5
A
330
0
100
AcDbSymbolTable
 70
    1
100
AcDbDimStyleTable
 71
    1
  0
DIMSTYLE
105
4E
330
A
100
AcDbSymbolTableRecord
100
AcDbDimStyleTableRecord
  2
Standard
 70
    0
 40
1
 41
2.5
 42
0.625
 43
0.38
 44
1.25
 45
0
 46
0
 47
0
 48
0
 49
1
140
2.5
141
0.09
142
0
143
25.4
144
1
145
0
146
1
147
0.625
148
0
 71
    0
 72
    0
 73
    0
 74
    1
 75
    0
 76
    0
 77
    0
 78
    8
 79
    0
170
    0
171
    2
172
    0
173
    0
174
    0
175
    0
176
    0
177
    0
178
    0
179
    0
271
    2
272
    4
273
    2
274
    2
275
    0
276
    0
277
    2
278
   44
279
    0
280
    0
281
    0
282
    0
283
    1
284
    0
285
    0
286
    0
288
    0
289
    3
340
standard
341

371
   -2
372
   -2
  0
ENDTAB
  0
TABLE
  2
BLOCK_RECORD
  5
1
330
0
100
AcDbSymbolTable
 70
    2
  0
BLOCK_RECORD
  5
1F
330
1
100
AcDbSymbolTableRecord
100
AcDbBlockTableRecord
  2
*Model_Space
 70
    0
280
    1
281
    0
  0
BLOCK_RECORD
  5
1E
330
1
100
AcDbSymbolTableRecord
100
AcDbBlockTableRecord
  2
*Paper_Space
 70
    0
280
    1
281
    0
  0
BLOCK_RECORD
  5
4F
330
1
100
AcDbSymbolTableRecord
100
AcDbBlockTableRecord
  2
*D13
 70
    0
280
    1
281
    0
  0
BLOCK_RECORD
  5
52
330
1
100
AcDbSymbolTableRecord
100
AcDbBlockTableRecord
  2
*D11
 70
    0
280
    1
281
    0
  0
BLOCK_RECORD
  5
55
330
1
100
AcDbSymbolTableRecord
100
AcDbBlockTableRecord
  2
*D15
 70
    0
280
    1
281
    0
  0
BLOCK_RECORD
  5
58
330
1
100
AcDbSymbolTableRecord
100
AcDbBlockTableRecord
  2
*D8
 70
    0
280
    1
281
    0
  0
BLOCK_RECORD
  5
5B
330
1
100
AcDbSymbolTableRecord
100
AcDbBlockTableRecord
  2
*D17
 70
    0
280
    1
281
    0
  0
BLOCK_RECORD
  5
5E
330
1
100
AcDbSymbolTableRecord
100
AcDbBlockTableRecord
  2
*D2
 70
    0
280
    1
281
    0
  0
BLOCK_RECORD
  5
61
330
1
100
AcDbSymbolTableRecord
100
AcDbBlockTableRecord
  2
*D20
 70
    0
280
    1
281
    0
  0
BLOCK_RECORD
  5
64
330
1
100
AcDbSymbolTableRecord
100
AcDbBlockTableRecord
  2
*D5
 70
    0
280
    1
281
    0
  0
BLOCK_RECORD
  5
67
330
1
100
AcDbSymbolTableRecord
100
AcDbBlockTableRecord
  2
*D4
 70
    0
280
    1
281
    0
  0
BLOCK_RECORD
  5
6A
330
1
100
AcDbSymbolTableRecord
100
AcDbBlockTableRecord
  2
*D10
 70
    0
280
    1
281
    0
  0
BLOCK_RECORD
  5
6D
330
1
100
AcDbSymbolTableRecord
100
AcDbBlockTableRecord
  2
*D18
 70
    0
280
    1
281
    0
  0
BLOCK_RECORD
  5
70
330
1
100
AcDbSymbolTableRecord
100
AcDbBlockTableRecord
  2
*D12
 70
    0
280
    1
281
    0
  0
BLOCK_RECORD
  5
73
330
1
100
AcDbSymbolTableRecord
100
AcDbBlockTableRecord
  2
*D7
 70
    0
280
    1
281
    0
  0
BLOCK_RECORD
  5
76
330
1
100
AcDbSymbolTableRecord
100
AcDbBlockTableRecord
  2
*D1
 70
    0
280
    1
281
    0
  0
BLOCK_RECORD
  5
79
330
1
100
AcDbSymbolTableRecord
100
AcDbBlockTableRecord
  2
*D16
 70
    0
280
    1
281
    0
  0
BLOCK_RECORD
  5
7C
330
1
100
AcDbSymbolTableRecord
100
AcDbBlockTableRecord
  2
*D3
 70
    0
280
    1
281
    0
  0
BLOCK_RECORD
  5
7F
330
1
100
AcDbSymbolTableRecord
100
AcDbBlockTableRecord
  2
*D19
 70
    0
280
    1
281
    0
  0
BLOCK_RECORD
  5
82
330
1
100
AcDbSymbolTableRecord
100
AcDbBlockTableRecord
  2
*D9
 70
    0
280
    1
281
    0
  0
BLOCK_RECORD
  5
85
330
1
100
AcDbSymbolTableRecord
100
AcDbBlockTableRecord
  2
*D6
 70
    0
280
    1
281
    0
  0
BLOCK_RECORD
  5
88
330
1
100
AcDbSymbolTableRecord
100
AcDbBlockTableRecord
  2
*D14
 70
    0
280
    1
281
    0
  0
BLOCK_RECORD
  5
8B
330
1
100
AcDbSymbolTableRecord
100
AcDbBlockTableRecord
  2
*D21
 70
    0
280
    1
281
    0
  0
BLOCK_RECORD
  5
8E
330
1
100
AcDbSymbolTableRecord
100
AcDbBlockTableRecord
  2
base
 70
    0
280
    1
281
    0
  0
BLOCK_RECORD
  5
91
330
1
100
AcDbSymbolTableRecord
100
AcDbBlockTableRecord
  2
side
 70
    0
280
    1
281
    0
  0
BLOCK_RECORD
  5
94
330
1
100
AcDbSymbolTableRecord
100
AcDbBlockTableRecord
  2
Base
 70
    0
280
    1
281
    0
  0
ENDTAB
  0
ENDSEC
  0
SECTION
  2
BLOCKS
  0
BLOCK
  5
20
330
1F
100
AcDbEntity
  8
0
100
AcDbBlockBegin
  2
*Model_Space
 70
    0
 10
0
 20
0
 30
0
  3
*Model_Space
  1

  0
ENDBLK
  5
21
330
1F
100
AcDbEntity
  8
0
100
AcDbBlockEnd
  0
BLOCK
  5
1C
330
1B
100
AcDbEntity
  8
0
100
AcDbBlockBegin
  2
*Paper_Space
 70
    0
 10
0
 20
0
 30
0
  3
*Paper_Space
  1

  0
ENDBLK
  5
1D
330
1F
100
AcDbEntity
  8
0
100
AcDbBlockEnd
  0
BLOCK
  5
50
330
4F
100
AcDbEntity
  8
0
100
AcDbBlockBegin
  2
*D13
 70
    1
 10
0
 20
0
  3
*D13
  1

  0
LINE
  5
97
100
AcDbEntity
  8
front panel
  6
ByBlock
 62
    0
370
   -2
100
AcDbLine
 10
-273.8965073075548
 20
12.00755850311798
 11
-273.8965073075548
 21
2.094238723269125
  0
SOLID
  5
98
100
AcDbEntity
  8
front panel
  6
ByBlock
 62
    0
370
   -2
100
AcDbTrace
 10
-273.8965073075548
 20
12.00755850311798
 30
0
 11
-273.480222649782
 21
9.507558503117981
 31
0
 12
-274.3127919653277
 22
9.507558503117981
 32
0
 13
-274.3127919653277
 23
9.507558503117981
 33
0
  0
SOLID
  5
99
100
AcDbEntity
  8
front panel
  6
ByBlock
 62
    0
370
   -2
100
AcDbTrace
 10
-273.8965073075548
 20
2.094238723269125
 30
0
 11
-274.3127919653277
 21
4.594238723269125
 31
0
 12
-273.480222649782
 22
4.594238723269125
 32
0
 13
-273.480222649782
 23
4.594238723269125
 33
0
  0
MTEXT
  5
9A
100
AcDbEntity
  8
front panel
  6
CONTINUOUS
 62
    0
370
   -2
100
AcDbMText
 10
-275.7715073075548
 20
7.050898613193553
 30
0
 40
2.5
 41
5.416666666666822
 71
    5
 72
    1
  1
9,91
  7
standard
210
0
220
0
230
1
 50
90
 73
    2
 44
1
  0
LINE
  5
9B
100
AcDbEntity
  8
front panel
  6
ByBlock
 62
    0
370
   -2
100
AcDbLine
 10
-276.2443636643133
 20
12.00755850311798
 11
-272.6465073075548
 21
12.00755850311798
  0
LINE
  5
9C
100
AcDbEntity
  8
front panel
  6
ByBlock
 62
    0
370
   -2
100
AcDbLine
 10
-276.4128653924585
 20
2.094238723269125
 11
-272.6465073075548
 21
2.094238723269125
  0
ENDBLK
  5
51
330
4F
100
AcDbEntity
  8
0
100
AcDbBlockEnd
  0
BLOCK
  5
53
330
52
100
AcDbEntity
  8
0
100
AcDbBlockBegin
  2
*D11
 70
    1
 10
0
 20
0
  3
*D11
  1

  0
LINE
  5
9D
100
AcDbEntity
  8
front panel
  6
ByBlock
 62
    0
370
   -2
100
AcDbLine
 10
-96
 20
58.87477965384475
 11
-86
 21
58.87477965384475
  0
SOLID
  5
9E
100
AcDbEntity
  8
front panel
  6
ByBlock
 62
    0
370
   -2
100
AcDbTrace
 10
-96
 20
58.87477965384475
 30
0
 11
-93.5
 21
59.29106431161759
 31
0
 12
-93.5
 22
58.45849499607191
 32
0
 13
-93.5
 23
58.45849499607191
 33
0
  0
SOLID
  5
9F
100
AcDbEntity
  8
front panel
  6
ByBlock
 62
    0
370
   -2
100
AcDbTrace
 10
-86
 20
58.87477965384475
 30
0
 11
-88.5
 21
58.45849499607191
 31
0
 12
-88.5
 22
59.29106431161759
 32
0
 13
-88.5
 23
59.29106431161759
 33
0
  0
MTEXT
  5
A0
100
AcDbEntity
  8
front panel
  6
CONTINUOUS
 62
    0
370
   -2
100
AcDbMText
 10
-91
 20
60.74977965384475
 30
0
 40
2.5
 41
2.5
 71
    5
 72
    1
  1
10
  7
standard
210
0
220
0
230
1
 50
0
 73
    2
 44
1
  0
LINE
  5
A1
100
AcDbEntity
  8
front panel
  6
ByBlock
 62
    0
370
   -2
100
AcDbLine
 10
-96
 20
61.49059321277199
 11
-96
 21
57.62477965384475
  0
LINE
  5
A2
100
AcDbEntity
  8
front panel
  6
ByBlock
 62
    0
370
   -2
100
AcDbLine
 10
-86
 20
62.03072880592653
 11
-86
 21
57.62477965384475
  0
ENDBLK
  5
54
330
52
100
AcDbEntity
  8
0
100
AcDbBlockEnd
  0
BLOCK
  5
56
330
55
100
AcDbEntity
  8
0
100
AcDbBlockBegin
  2
*D15
 70
    1
 10
0
 20
0
  3
*D15
  1

  0
LINE
  5
A3
100
AcDbEntity
  8
front panel
  6
ByBlock
 62
    0
370
   -2
100
AcDbLine
 10
-320.000321876895
 20
134.6249999171162
 11
-320.0006898500848
 21
135.3395066641669
  0
LINE
  5
A4
100
AcDbEntity
  8
front panel
  6
ByBlock
 62
    0
370
   -2
100
AcDbLine
 10
-336.000321876895
 20
134.6167598675087
 11
-336.0006898500848
 21
135.3312666145595
  0
LINE
  5
A5
100
AcDbEntity
  8
front panel
  6
ByBlock
 62
    0
370
   -2
100
AcDbLine
 10
-320.0000460962949
 20
134.0895068299345
 11
-336.0000460962949
 21
134.081266780327
  0
SOLID
  5
A6
100
AcDbEntity
  8
front panel
  6
ByBlock
 62
    0
370
   -2
100
AcDbTrace
 10
-320.0000460962949
 20
134.0895068299345
 30
0
 11
-322.4998313768987
 21
133.6719347197865
 31
0
 12
-322.5002601526207
 22
134.5045039249217
 32
0
 13
-322.5002601526207
 23
134.5045039249217
 33
0
  0
SOLID
  5
A7
100
AcDbEntity
  8
front panel
  6
ByBlock
 62
    0
370
   -2
100
AcDbTrace
 10
-336.0000460962949
 20
134.081266780327
 30
0
 11
-333.5002608156911
 21
134.4988388904751
 31
0
 12
-333.4998320399691
 22
133.6662696853398
 32
0
 13
-333.4998320399691
 23
133.6662696853398
 33
0
  0
MTEXT
  5
A8
100
AcDbEntity
  8
front panel
  6
CONTINUOUS
 62
    0
370
   -2
100
AcDbMText
 10
-328.0010117269802
 20
135.9603865564794
 30
0
 40
2.5
 41
2.500000000000155
 71
    5
 72
    1
  1
16
  7
standard
210
0
220
0
230
1
 50
0.02950750148417132
 73
    2
 44
1
  0
ENDBLK
  5
57
330
55
100
AcDbEntity
  8
0
100
AcDbBlockEnd
  0
BLOCK
  5
59
330
58
100
AcDbEntity
  8
0
100
AcDbBlockBegin
  2
*D8
 70
    1
 10
0
 20
0
  3
*D8
  1

  0
LINE
  5
A9
100
AcDbEntity
  8
front panel
  6
ByBlock
 62
    0
370
   -2
100
AcDbLine
 10
-325.9973764383672
 20
61.48779957028223
 11
-226.0026235616328
 21
62.51220042971777
  0
SOLID
  5
AA
100
AcDbEntity
  8
front panel
  6
ByBlock
 62
    0
370
   -2
100
AcDbTrace
 10
-325.9973764383672
 20
61.48779957028223
 30
0
 11
-323.5017720400608
 21
61.92967240657183
 31
0
 12
-323.4932431928369
 22
61.0971467769644
 32
0
 13
-323.4932431928369
 23
61.0971467769644
 33
0
  0
SOLID
  5
AB
100
AcDbEntity
  8
front panel
  6
ByBlock
 62
    0
370
   -2
100
AcDbTrace
 10
-226.0026235616328
 20
62.51220042971777
 30
0
 11
-228.4982279599392
 21
62.07032759342817
 31
0
 12
-228.5067568071631
 22
62.90285322303559
 32
0
 13
-228.5067568071631
 23
62.90285322303559
 33
0
  0
MTEXT
  5
AC
100
AcDbEntity
  8
front panel
  6
CONTINUOUS
 62
    0
370
   -2
100
AcDbMText
 10
-276.0192075161144
 20
63.87490161643877
 30
0
 40
2.5
 41
4.444444444444445
 71
    5
 72
    1
  1
100
  7
standard
210
0
220
0
230
1
 50
0.586948723762569
 73
    2
 44
1
  0
ENDBLK
  5
5A
330
58
100
AcDbEntity
  8
0
100
AcDbBlockEnd
  0
BLOCK
  5
5C
330
5B
100
AcDbEntity
  8
0
100
AcDbBlockBegin
  2
*D17
 70
    1
 10
0
 20
0
  3
*D17
  1

  0
LINE
  5
AD
100
AcDbEntity
  8
front panel
  6
ByBlock
 62
    0
370
   -2
100
AcDbLine
 10
-294
 20
134
 11
-279
 21
134
  0
SOLID
  5
AE
100
AcDbEntity
  8
front panel
  6
ByBlock
 62
    0
370
   -2
100
AcDbTrace
 10
-289
 20
134
 30
0
 11
-291.5
 21
133.5837153422272
 31
0
 12
-291.5
 22
134.4162846577728
 32
0
 13
-291.5
 23
134.4162846577728
 33
0
  0
SOLID
  5
AF
100
AcDbEntity
  8
front panel
  6
ByBlock
 62
    0
370
   -2
100
AcDbTrace
 10
-284
 20
134
 30
0
 11
-281.5
 21
134.4162846577728
 31
0
 12
-281.5
 22
133.5837153422272
 32
0
 13
-281.5
 23
133.5837153422272
 33
0
  0
MTEXT
  5
B0
100
AcDbEntity
  8
front panel
  6
CONTINUOUS
 62
    0
370
   -2
100
AcDbMText
 10
-286.5
 20
135.875
 30
0
 40
2.5
 41
1.111111111111266
 71
    5
 72
    1
  1
5
  7
standard
210
0
220
0
230
1
 50
0
 73
    2
 44
1
  0
ENDBLK
  5
5D
330
5B
100
AcDbEntity
  8
0
100
AcDbBlockEnd
  0
BLOCK
  5
5F
330
5E
100
AcDbEntity
  8
0
100
AcDbBlockBegin
  2
*D2
 70
    1
 10
0
 20
0
  3
*D2
  1

  0
LINE
  5
B1
100
AcDbEntity
  8
case
  6
ByBlock
 62
    0
370
   -2
100
AcDbLine
 10
15.375
 20
150
 11
-1.25
 21
150
  0
LINE
  5
B2
100
AcDbEntity
  8
case
  6
ByBlock
 62
    0
370
   -2
100
AcDbLine
 10
15.375
 20
7.653789711389858e-017
 11
-1.25
 21
2.112445960343601e-015
  0
LINE
  5
B3
100
AcDbEntity
  8
case
  6
ByBlock
 62
    0
370
   -2
100
AcDbLine
 10
0
 20
150
 11
0
 21
1.959370166115804e-015
  0
SOLID
  5
B4
100
AcDbEntity
  8
case
  6
ByBlock
 62
    0
370
   -2
100
AcDbTrace
 10
0
 20
150
 30
0
 11
0.4162846577728403
 21
147.5
 31
0
 12
-0.4162846577728406
 22
147.5
 32
0
 13
-0.4162846577728406
 23
147.5
 33
0
  0
SOLID
  5
B5
100
AcDbEntity
  8
case
  6
ByBlock
 62
    0
370
   -2
100
AcDbTrace
 10
0
 20
1.959370166115804e-015
 30
0
 11
-0.41628465777284
 21
2.500000000000002
 31
0
 12
0.4162846577728409
 22
2.500000000000002
 32
0
 13
0.4162846577728409
 23
2.500000000000002
 33
0
  0
MTEXT
  5
B6
100
AcDbEntity
  8
case
  6
CONTINUOUS
 62
    0
370
   -2
100
AcDbMText
 10
-1.875
 20
75
 30
0
 40
2.5
 41
4.444444444444599
 71
    5
 72
    1
  1
150
  7
standard
210
0
220
0
230
1
 50
90
 73
    2
 44
1
  0
ENDBLK
  5
60
330
5E
100
AcDbEntity
  8
0
100
AcDbBlockEnd
  0
BLOCK
  5
62
330
61
100
AcDbEntity
  8
0
100
AcDbBlockBegin
  2
*D20
 70
    1
 10
0
 20
0
  3
*D20
  1

  0
LINE
  5
B7
100
AcDbEntity
  8
front panel
  6
ByBlock
 62
    0
370
   -2
100
AcDbLine
 10
-352
 20
-16
 11
16
 21
-16
  0
SOLID
  5
B8
100
AcDbEntity
  8
front panel
  6
ByBlock
 62
    0
370
   -2
100
AcDbTrace
 10
-352
 20
-16
 30
0
 11
-349.5
 21
-15.58371534222716
 31
0
 12
-349.5
 22
-16.41628465777284
 32
0
 13
-349.5
 23
-16.41628465777284
 33
0
  0
SOLID
  5
B9
100
AcDbEntity
  8
front panel
  6
ByBlock
 62
    0
370
   -2
100
AcDbTrace
 10
16
 20
-16
 30
0
 11
13.5
 21
-16.41628465777284
 31
0
 12
13.5
 22
-15.58371534222716
 32
0
 13
13.5
 23
-15.58371534222716
 33
0
  0
MTEXT
  5
BA
100
AcDbEntity
  8
front panel
  6
CONTINUOUS
 62
    0
370
   -2
100
AcDbMText
 10
-168
 20
-14.125
 30
0
 40
2.5
 41
5.000000000000311
 71
    5
 72
    1
  1
368
  7
standard
210
0
220
0
230
1
 50
0
 73
    2
 44
1
  0
LINE
  5
BB
100
AcDbEntity
  8
front panel
  6
ByBlock
 62
    0
370
   -2
100
AcDbLine
 10
-352
 20
-15.375
 11
-352
 21
-14.75
  0
LINE
  5
BC
100
AcDbEntity
  8
front panel
  6
ByBlock
 62
    0
370
   -2
100
AcDbLine
 10
16
 20
-15.375
 11
16
 21
-14.75
  0
ENDBLK
  5
63
330
61
100
AcDbEntity
  8
0
100
AcDbBlockEnd
  0
BLOCK
  5
65
330
64
100
AcDbEntity
  8
0
100
AcDbBlockBegin
  2
*D5
 70
    1
 10
0
 20
0
  3
*D5
  1

  0
LINE
  5
BD
100
AcDbEntity
  8
0
  6
ByBlock
 62
    0
370
   -2
100
AcDbLine
 10
-95.375
 20
122
 11
-94.75
 21
122
  0
LINE
  5
BE
100
AcDbEntity
  8
0
  6
ByBlock
 62
    0
370
   -2
100
AcDbLine
 10
-195.375
 20
122
 11
-194.75
 21
122
  0
LINE
  5
BF
100
AcDbEntity
  8
0
  6
ByBlock
 62
    0
370
   -2
100
AcDbLine
 10
-96
 20
122
 11
-196
 21
122
  0
SOLID
  5
C0
100
AcDbEntity
  8
0
  6
ByBlock
 62
    0
370
   -2
100
AcDbTrace
 10
-96
 20
122
 30
0
 11
-98.5
 21
121.5837153422272
 31
0
 12
-98.5
 22
122.4162846577728
 32
0
 13
-98.5
 23
122.4162846577728
 33
0
  0
SOLID
  5
C1
100
AcDbEntity
  8
0
  6
ByBlock
 62
    0
370
   -2
100
AcDbTrace
 10
-196
 20
122
 30
0
 11
-193.5
 21
122.4162846577728
 31
0
 12
-193.5
 22
121.5837153422272
 32
0
 13
-193.5
 23
121.5837153422272
 33
0
  0
MTEXT
  5
C2
100
AcDbEntity
  8
0
  6
CONTINUOUS
 62
    0
370
   -2
100
AcDbMText
 10
-146
 20
123.875
 30
0
 40
2.5
 41
4.444444444444445
 71
    5
 72
    1
  1
100
  7
standard
210
0
220
0
230
1
 50
0
 73
    2
 44
1
  0
ENDBLK
  5
66
330
64
100
AcDbEntity
  8
0
100
AcDbBlockEnd
  0
BLOCK
  5
68
330
67
100
AcDbEntity
  8
0
100
AcDbBlockBegin
  2
*D4
 70
    1
 10
0
 20
0
  3
*D4
  1

  0
LINE
  5
C3
100
AcDbEntity
  8
0
  6
ByBlock
 62
    0
370
   -2
100
AcDbLine
 10
-86
 20
0.625
 11
-86
 21
3.25
  0
LINE
  5
C4
100
AcDbEntity
  8
0
  6
ByBlock
 62
    0
370
   -2
100
AcDbLine
 10
-336
 20
0.625
 11
-336
 21
3.25
  0
LINE
  5
C5
100
AcDbEntity
  8
0
  6
ByBlock
 62
    0
370
   -2
100
AcDbLine
 10
-86
 20
2
 11
-336
 21
2
  0
SOLID
  5
C6
100
AcDbEntity
  8
0
  6
ByBlock
 62
    0
370
   -2
100
AcDbTrace
 10
-86
 20
2
 30
0
 11
-88.5
 21
1.583715342227159
 31
0
 12
-88.5
 22
2.41628465777284
 32
0
 13
-88.5
 23
2.41628465777284
 33
0
  0
SOLID
  5
C7
100
AcDbEntity
  8
0
  6
ByBlock
 62
    0
370
   -2
100
AcDbTrace
 10
-336
 20
2
 30
0
 11
-333.5
 21
2.41628465777284
 31
0
 12
-333.5
 22
1.583715342227159
 32
0
 13
-333.5
 23
1.583715342227159
 33
0
  0
MTEXT
  5
C8
100
AcDbEntity
  8
0
  6
CONTINUOUS
 62
    0
370
   -2
100
AcDbMText
 10
-211
 20
3.875
 30
0
 40
2.5
 41
5.000000000000155
 71
    5
 72
    1
  1
250
  7
standard
210
0
220
0
230
1
 50
0
 73
    2
 44
1
  0
ENDBLK
  5
69
330
67
100
AcDbEntity
  8
0
100
AcDbBlockEnd
  0
BLOCK
  5
6B
330
6A
100
AcDbEntity
  8
0
100
AcDbBlockBegin
  2
*D10
 70
    1
 10
0
 20
0
  3
*D10
  1

  0
LINE
  5
C9
100
AcDbEntity
  8
front panel
  6
ByBlock
 62
    0
370
   -2
100
AcDbLine
 10
-335.7500000000251
 20
61.50000000000459
 11
-325.7500000000243
 21
61.50000000000459
  0
SOLID
  5
CA
100
AcDbEntity
  8
front panel
  6
ByBlock
 62
    0
370
   -2
100
AcDbTrace
 10
-335.7500000000251
 20
61.50000000000459
 30
0
 11
-333.2500000000251
 21
61.91628465777743
 31
0
 12
-333.2500000000251
 22
61.08371534223175
 32
0
 13
-333.2500000000251
 23
61.08371534223175
 33
0
  0
SOLID
  5
CB
100
AcDbEntity
  8
front panel
  6
ByBlock
 62
    0
370
   -2
100
AcDbTrace
 10
-325.7500000000243
 20
61.50000000000459
 30
0
 11
-328.2500000000243
 21
61.08371534223175
 31
0
 12
-328.2500000000243
 22
61.91628465777743
 32
0
 13
-328.2500000000243
 23
61.91628465777743
 33
0
  0
MTEXT
  5
CC
100
AcDbEntity
  8
front panel
  6
CONTINUOUS
 62
    0
370
   -2
100
AcDbMText
 10
-330.7500000000247
 20
63.37500000000459
 30
0
 40
2.5
 41
2.5
 71
    5
 72
    1
  1
10
  7
standard
210
0
220
0
230
1
 50
0
 73
    2
 44
1
  0
LINE
  5
CD
100
AcDbEntity
  8
front panel
  6
ByBlock
 62
    0
370
   -2
100
AcDbLine
 10
-335.7500000000251
 20
61.87500000000457
 11
-335.7500000000251
 21
62.75000000000459
  0
LINE
  5
CE
100
AcDbEntity
  8
front panel
  6
ByBlock
 62
    0
370
   -2
100
AcDbLine
 10
-325.7500000000243
 20
61.87500000000457
 11
-325.7500000000243
 21
62.75000000000459
  0
ENDBLK
  5
6C
330
6A
100
AcDbEntity
  8
0
100
AcDbBlockEnd
  0
BLOCK
  5
6E
330
6D
100
AcDbEntity
  8
0
100
AcDbBlockBegin
  2
*D18
 70
    1
 10
0
 20
0
  3
*D18
  1

  0
LINE
  5
CF
100
AcDbEntity
  8
front panel
  6
ByBlock
 62
    0
370
   -2
100
AcDbLine
 10
-320
 20
134
 11
-301.5
 21
134
  0
SOLID
  5
D0
100
AcDbEntity
  8
front panel
  6
ByBlock
 62
    0
370
   -2
100
AcDbTrace
 10
-320
 20
134
 30
0
 11
-317.5
 21
134.4162846577728
 31
0
 12
-317.5
 22
133.5837153422272
 32
0
 13
-317.5
 23
133.5837153422272
 33
0
  0
SOLID
  5
D1
100
AcDbEntity
  8
front panel
  6
ByBlock
 62
    0
370
   -2
100
AcDbTrace
 10
-301.5
 20
134
 30
0
 11
-304
 21
133.5837153422272
 31
0
 12
-304
 22
134.4162846577728
 32
0
 13
-304
 23
134.4162846577728
 33
0
  0
MTEXT
  5
D2
100
AcDbEntity
  8
front panel
  6
CONTINUOUS
 62
    0
370
   -2
100
AcDbMText
 10
-310.75
 20
135.875
 30
0
 40
2.5
 41
5.416666666666822
 71
    5
 72
    1
  1
18,5
  7
standard
210
0
220
0
230
1
 50
0
 73
    2
 44
1
  0
LINE
  5
D3
100
AcDbEntity
  8
front panel
  6
ByBlock
 62
    0
370
   -2
100
AcDbLine
 10
-320
 20
134.625
 11
-320
 21
135.25
  0
LINE
  5
D4
100
AcDbEntity
  8
front panel
  6
ByBlock
 62
    0
370
   -2
100
AcDbLine
 10
-301.5
 20
134.625
 11
-301.5
 21
135.25
  0
ENDBLK
  5
6F
330
6D
100
AcDbEntity
  8
0
100
AcDbBlockEnd
  0
BLOCK
  5
71
330
70
100
AcDbEntity
  8
0
100
AcDbBlockBegin
  2
*D12
 70
    1
 10
0
 20
0
  3
*D12
  1

  0
LINE
  5
D5
100
AcDbEntity
  8
front panel
  6
ByBlock
 62
    0
370
   -2
100
AcDbLine
 10
-143.3057640637015
 20
12.00021345246772
 11
-143.3057640637015
 21
1.795061762802107
  0
SOLID
  5
D6
100
AcDbEntity
  8
front panel
  6
ByBlock
 62
    0
370
   -2
100
AcDbTrace
 10
-143.3057640637015
 20
12.00021345246772
 30
0
 11
-142.8894794059287
 21
9.500213452467721
 31
0
 12
-143.7220487214744
 22
9.500213452467721
 32
0
 13
-143.7220487214744
 23
9.500213452467721
 33
0
  0
SOLID
  5
D7
100
AcDbEntity
  8
front panel
  6
ByBlock
 62
    0
370
   -2
100
AcDbTrace
 10
-143.3057640637015
 20
1.795061762802107
 30
0
 11
-143.7220487214744
 21
4.295061762802107
 31
0
 12
-142.8894794059287
 22
4.295061762802107
 32
0
 13
-142.8894794059287
 23
4.295061762802107
 33
0
  0
MTEXT
  5
D8
100
AcDbEntity
  8
front panel
  6
CONTINUOUS
 62
    0
370
   -2
100
AcDbMText
 10
-145.1807640637015
 20
6.897637607634914
 30
0
 40
2.5
 41
6.805555555555555
 71
    5
 72
    1
  1
10,21
  7
standard
210
0
220
0
230
1
 50
90
 73
    2
 44
1
  0
LINE
  5
D9
100
AcDbEntity
  8
front panel
  6
ByBlock
 62
    0
370
   -2
100
AcDbLine
 10
-145.5210999699152
 20
12.00021345246772
 11
-142.0557640637015
 21
12.00021345246772
  0
LINE
  5
DA
100
AcDbEntity
  8
front panel
  6
ByBlock
 62
    0
370
   -2
100
AcDbLine
 10
-145.5229451881382
 20
1.795061762802107
 11
-142.0557640637015
 21
1.795061762802107
  0
ENDBLK
  5
72
330
70
100
AcDbEntity
  8
0
100
AcDbBlockEnd
  0
BLOCK
  5
74
330
73
100
AcDbEntity
  8
0
100
AcDbBlockBegin
  2
*D7
 70
    1
 10
0
 20
0
  3
*D7
  1

  0
LINE
  5
DB
100
AcDbEntity
  8
front panel
  6
ByBlock
 62
    0
370
   -2
100
AcDbLine
 10
-325.9887484289998
 20
134.3672768086226
 11
-314.0112515710002
 21
133.6327231913774
  0
SOLID
  5
DC
100
AcDbEntity
  8
front panel
  6
ByBlock
 62
    0
370
   -2
100
AcDbTrace
 10
-325.9887484289998
 20
134.3672768086226
 30
0
 11
-323.4679546334856
 21
134.6297488200721
 31
0
 12
-323.5189185336808
 22
133.7987407899875
 32
0
 13
-323.5189185336808
 23
133.7987407899875
 33
0
  0
SOLID
  5
DD
100
AcDbEntity
  8
front panel
  6
ByBlock
 62
    0
370
   -2
100
AcDbTrace
 10
-314.0112515710002
 20
133.6327231913774
 30
0
 11
-316.5320453665144
 21
133.3702511799279
 31
0
 12
-316.4810814663192
 22
134.2012592100125
 32
0
 13
-316.4810814663192
 23
134.2012592100125
 33
0
  0
MTEXT
  5
DE
100
AcDbEntity
  8
front panel
  6
CONTINUOUS
 62
    0
370
   -2
100
AcDbMText
 10
-319.8852259973054
 20
135.8714838840625
 30
0
 40
2.5
 41
2.5
 71
    5
 72
    1
  1
12
  7
standard
210
0
220
0
230
1
 50
356.4905708515957
 73
    2
 44
1
  0
ENDBLK
  5
75
330
73
100
AcDbEntity
  8
0
100
AcDbBlockEnd
  0
BLOCK
  5
77
330
76
100
AcDbEntity
  8
0
100
AcDbBlockBegin
  2
*D1
 70
    1
 10
0
 20
0
  3
*D1
  1

  0
LINE
  5
DF
100
AcDbEntity
  8
case
  6
ByBlock
 62
    0
370
   -2
100
AcDbLine
 10
-351.375
 20
0
 11
-350.75
 21
0
  0
LINE
  5
E0
100
AcDbEntity
  8
case
  6
ByBlock
 62
    0
370
   -2
100
AcDbLine
 10
-351.375
 20
150
 11
-350.75
 21
150
  0
LINE
  5
E1
100
AcDbEntity
  8
case
  6
ByBlock
 62
    0
370
   -2
100
AcDbLine
 10
-352
 20
0
 11
-352
 21
150
  0
SOLID
  5
E2
100
AcDbEntity
  8
case
  6
ByBlock
 62
    0
370
   -2
100
AcDbTrace
 10
-352
 20
0
 30
0
 11
-352.4162846577728
 21
2.5
 31
0
 12
-351.5837153422272
 22
2.5
 32
0
 13
-351.5837153422272
 23
2.5
 33
0
  0
SOLID
  5
E3
100
AcDbEntity
  8
case
  6
ByBlock
 62
    0
370
   -2
100
AcDbTrace
 10
-352
 20
150
 30
0
 11
-351.5837153422272
 21
147.5
 31
0
 12
-352.4162846577728
 22
147.5
 32
0
 13
-352.4162846577728
 23
147.5
 33
0
  0
MTEXT
  5
E4
100
AcDbEntity
  8
case
  6
CONTINUOUS
 62
    0
370
   -2
100
AcDbMText
 10
-353.875
 20
75
 30
0
 40
2.5
 41
4.444444444444599
 71
    5
 72
    1
  1
150
  7
standard
210
0
220
0
230
1
 50
90
 73
    2
 44
1
  0
ENDBLK
  5
78
330
76
100
AcDbEntity
  8
0
100
AcDbBlockEnd
  0
BLOCK
  5
7A
330
79
100
AcDbEntity
  8
0
100
AcDbBlockBegin
  2
*D16
 70
    1
 10
0
 20
0
  3
*D16
  1

  0
LINE
  5
E5
100
AcDbEntity
  8
front panel
  6
ByBlock
 62
    0
370
   -2
100
AcDbLine
 10
-309
 20
134
 11
-294
 21
134
  0
SOLID
  5
E6
100
AcDbEntity
  8
front panel
  6
ByBlock
 62
    0
370
   -2
100
AcDbTrace
 10
-304
 20
134
 30
0
 11
-306.5
 21
133.5837153422272
 31
0
 12
-306.5
 22
134.4162846577728
 32
0
 13
-306.5
 23
134.4162846577728
 33
0
  0
SOLID
  5
E7
100
AcDbEntity
  8
front panel
  6
ByBlock
 62
    0
370
   -2
100
AcDbTrace
 10
-299
 20
134
 30
0
 11
-296.5
 21
134.4162846577728
 31
0
 12
-296.5
 22
133.5837153422272
 32
0
 13
-296.5
 23
133.5837153422272
 33
0
  0
MTEXT
  5
E8
100
AcDbEntity
  8
front panel
  6
CONTINUOUS
 62
    0
370
   -2
100
AcDbMText
 10
-301.5
 20
135.875
 30
0
 40
2.5
 41
1.111111111111266
 71
    5
 72
    1
  1
5
  7
standard
210
0
220
0
230
1
 50
0
 73
    2
 44
1
  0
ENDBLK
  5
7B
330
79
100
AcDbEntity
  8
0
100
AcDbBlockEnd
  0
BLOCK
  5
7D
330
7C
100
AcDbEntity
  8
0
100
AcDbBlockBegin
  2
*D3
 70
    1
 10
0
 20
0
  3
*D3
  1

  0
LINE
  5
E9
100
AcDbEntity
  8
0
  6
ByBlock
 62
    0
370
   -2
100
AcDbLine
 10
0.625
 20
0
 11
1.25
 21
0
  0
LINE
  5
EA
100
AcDbEntity
  8
0
  6
ByBlock
 62
    0
370
   -2
100
AcDbLine
 10
-85.375
 20
0
 11
-84.75
 21
0
  0
LINE
  5
EB
100
AcDbEntity
  8
0
  6
ByBlock
 62
    0
370
   -2
100
AcDbLine
 10
0
 20
0
 11
-86
 21
0
  0
SOLID
  5
EC
100
AcDbEntity
  8
0
  6
ByBlock
 62
    0
370
   -2
100
AcDbTrace
 10
0
 20
0
 30
0
 11
-2.5
 21
-0.4162846577728404
 31
0
 12
-2.5
 22
0.4162846577728404
 32
0
 13
-2.5
 23
0.4162846577728404
 33
0
  0
SOLID
  5
ED
100
AcDbEntity
  8
0
  6
ByBlock
 62
    0
370
   -2
100
AcDbTrace
 10
-86
 20
0
 30
0
 11
-83.5
 21
0.4162846577728402
 31
0
 12
-83.5
 22
-0.4162846577728408
 32
0
 13
-83.5
 23
-0.4162846577728408
 33
0
  0
MTEXT
  5
EE
100
AcDbEntity
  8
0
  6
CONTINUOUS
 62
    0
370
   -2
100
AcDbMText
 10
-43
 20
1.875
 30
0
 40
2.5
 41
3.055555555555711
 71
    5
 72
    1
  1
86
  7
standard
210
0
220
0
230
1
 50
0
 73
    2
 44
1
  0
ENDBLK
  5
7E
330
7C
100
AcDbEntity
  8
0
100
AcDbBlockEnd
  0
BLOCK
  5
80
330
7F
100
AcDbEntity
  8
0
100
AcDbBlockBegin
  2
*D19
 70
    1
 10
0
 20
0
  3
*D19
  1

  0
LINE
  5
EF
100
AcDbEntity
  8
front panel
  6
ByBlock
 62
    0
370
   -2
100
AcDbLine
 10
-301.5
 20
134
 11
-286.5
 21
134
  0
SOLID
  5
F0
100
AcDbEntity
  8
front panel
  6
ByBlock
 62
    0
370
   -2
100
AcDbTrace
 10
-301.5
 20
134
 30
0
 11
-299
 21
134.4162846577728
 31
0
 12
-299
 22
133.5837153422272
 32
0
 13
-299
 23
133.5837153422272
 33
0
  0
SOLID
  5
F1
100
AcDbEntity
  8
front panel
  6
ByBlock
 62
    0
370
   -2
100
AcDbTrace
 10
-286.5
 20
134
 30
0
 11
-289
 21
133.5837153422272
 31
0
 12
-289
 22
134.4162846577728
 32
0
 13
-289
 23
134.4162846577728
 33
0
  0
MTEXT
  5
F2
100
AcDbEntity
  8
front panel
  6
CONTINUOUS
 62
    0
370
   -2
100
AcDbMText
 10
-294
 20
135.875
 30
0
 40
2.5
 41
2.500000000000155
 71
    5
 72
    1
  1
15
  7
standard
210
0
220
0
230
1
 50
0
 73
    2
 44
1
  0
LINE
  5
F3
100
AcDbEntity
  8
front panel
  6
ByBlock
 62
    0
370
   -2
100
AcDbLine
 10
-301.5
 20
134.625
 11
-301.5
 21
135.25
  0
LINE
  5
F4
100
AcDbEntity
  8
front panel
  6
ByBlock
 62
    0
370
   -2
100
AcDbLine
 10
-286.5
 20
134.625
 11
-286.5
 21
135.25
  0
ENDBLK
  5
81
330
7F
100
AcDbEntity
  8
0
100
AcDbBlockEnd
  0
BLOCK
  5
83
330
82
100
AcDbEntity
  8
0
100
AcDbBlockBegin
  2
*D9
 70
    1
 10
0
 20
0
  3
*D9
  1

  0
LINE
  5
F5
100
AcDbEntity
  8
front panel
  6
ByBlock
 62
    0
370
   -2
100
AcDbLine
 10
-96.00039367398202
 20
61.80158819787348
 11
-195.999606326018
 21
62.19841180212651
  0
SOLID
  5
F6
100
AcDbEntity
  8
front panel
  6
ByBlock
 62
    0
370
   -2
100
AcDbTrace
 10
-96.00039367398202
 20
61.80158819787348
 30
0
 11
-98.50202590606584
 21
61.39522740781574
 31
0
 12
-98.49872207449999
 22
62.22779016814387
 32
0
 13
-98.49872207449999
 23
62.22779016814387
 33
0
  0
SOLID
  5
F7
100
AcDbEntity
  8
front panel
  6
ByBlock
 62
    0
370
   -2
100
AcDbTrace
 10
-195.999606326018
 20
62.19841180212651
 30
0
 11
-193.4979740939342
 21
62.60477259218425
 31
0
 12
-193.5012779255
 22
61.77220983185612
 32
0
 13
-193.5012779255
 23
61.77220983185612
 33
0
  0
MTEXT
  5
F8
100
AcDbEntity
  8
front panel
  6
CONTINUOUS
 62
    0
370
   -2
100
AcDbMText
 10
-145.9925595574203
 20
63.87498523722567
 30
0
 40
2.5
 41
4.444444444444445
 71
    5
 72
    1
  1
100
  7
standard
210
0
220
0
230
1
 50
359.7726362259363
 73
    2
 44
1
  0
ENDBLK
  5
84
330
82
100
AcDbEntity
  8
0
100
AcDbBlockEnd
  0
BLOCK
  5
86
330
85
100
AcDbEntity
  8
0
100
AcDbBlockBegin
  2
*D6
 70
    1
 10
0
 20
0
  3
*D6
  1

  0
LINE
  5
F9
100
AcDbEntity
  8
0
  6
ByBlock
 62
    0
370
   -2
100
AcDbLine
 10
-195.375
 20
2
 11
-194.75
 21
2
  0
LINE
  5
FA
100
AcDbEntity
  8
0
  6
ByBlock
 62
    0
370
   -2
100
AcDbLine
 10
-195.375
 20
122
 11
-194.75
 21
122
  0
LINE
  5
FB
100
AcDbEntity
  8
0
  6
ByBlock
 62
    0
370
   -2
100
AcDbLine
 10
-196
 20
2
 11
-196
 21
122
  0
SOLID
  5
FC
100
AcDbEntity
  8
0
  6
ByBlock
 62
    0
370
   -2
100
AcDbTrace
 10
-196
 20
2
 30
0
 11
-196.4162846577728
 21
4.5
 31
0
 12
-195.5837153422272
 22
4.5
 32
0
 13
-195.5837153422272
 23
4.5
 33
0
  0
SOLID
  5
FD
100
AcDbEntity
  8
0
  6
ByBlock
 62
    0
370
   -2
100
AcDbTrace
 10
-196
 20
122
 30
0
 11
-195.5837153422272
 21
119.5
 31
0
 12
-196.4162846577728
 22
119.5
 32
0
 13
-196.4162846577728
 23
119.5
 33
0
  0
MTEXT
  5
FE
100
AcDbEntity
  8
0
  6
CONTINUOUS
 62
    0
370
   -2
100
AcDbMText
 10
-197.875
 20
62
 30
0
 40
2.5
 41
4.444444444444445
 71
    5
 72
    1
  1
120
  7
standard
210
0
220
0
230
1
 50
90
 73
    2
 44
1
  0
ENDBLK
  5
87
330
85
100
AcDbEntity
  8
0
100
AcDbBlockEnd
  0
BLOCK
  5
89
330
88
100
AcDbEntity
  8
0
100
AcDbBlockBegin
  2
*D14
 70
    1
 10
0
 20
0
  3
*D14
  1

  0
LINE
  5
FF
100
AcDbEntity
  8
front panel
  6
ByBlock
 62
    0
370
   -2
100
AcDbLine
 10
-319.375
 20
134
 11
-318.75
 21
134
  0
LINE
  5
100
100
AcDbEntity
  8
front panel
  6
ByBlock
 62
    0
370
   -2
100
AcDbLine
 10
-319.4515087392142
 20
150
 11
-318.8265087392142
 21
150
  0
LINE
  5
101
100
AcDbEntity
  8
front panel
  6
ByBlock
 62
    0
370
   -2
100
AcDbLine
 10
-320
 20
134
 11
-320.0765087392142
 21
150
  0
SOLID
  5
102
100
AcDbEntity
  8
front panel
  6
ByBlock
 62
    0
370
   -2
100
AcDbTrace
 10
-320
 20
134
 30
0
 11
-320.4282342523919
 21
136.4979808528841
 31
0
 12
-319.595674455271
 22
136.501961984159
 32
0
 13
-319.595674455271
 23
136.501961984159
 33
0
  0
SOLID
  5
103
100
AcDbEntity
  8
front panel
  6
ByBlock
 62
    0
370
   -2
100
AcDbTrace
 10
-320.0765087392142
 20
150
 30
0
 11
-319.6482744868223
 21
147.5020191471159
 31
0
 12
-320.4808342839432
 22
147.498038015841
 32
0
 13
-320.4808342839432
 23
147.498038015841
 33
0
  0
MTEXT
  5
104
100
AcDbEntity
  8
front panel
  6
CONTINUOUS
 62
    0
370
   -2
100
AcDbMText
 10
-318.163275805716
 20
142.0089657653736
 30
0
 40
2.5
 41
2.500000000000155
 71
    5
 72
    1
  1
16
  7
standard
210
0
220
0
230
1
 50
270.2739746526193
 73
    2
 44
1
  0
ENDBLK
  5
8A
330
88
100
AcDbEntity
  8
0
100
AcDbBlockEnd
  0
BLOCK
  5
8C
330
8B
100
AcDbEntity
  8
0
100
AcDbBlockBegin
  2
*D21
 70
    1
 10
0
 20
0
  3
*D21
  1

  0
LINE
  5
105
100
AcDbEntity
  8
front panel
  6
ByBlock
 62
    0
370
   -2
100
AcDbLine
 10
16.625
 20
-16
 11
17.25
 21
-16
  0
LINE
  5
106
100
AcDbEntity
  8
front panel
  6
ByBlock
 62
    0
370
   -2
100
AcDbLine
 10
16.625
 20
150
 11
17.25
 21
150
  0
LINE
  5
107
100
AcDbEntity
  8
front panel
  6
ByBlock
 62
    0
370
   -2
100
AcDbLine
 10
16
 20
-16
 11
16
 21
150
  0
SOLID
  5
108
100
AcDbEntity
  8
front panel
  6
ByBlock
 62
    0
370
   -2
100
AcDbTrace
 10
16
 20
-16
 30
0
 11
15.58371534222716
 21
-13.5
 31
0
 12
16.41628465777284
 22
-13.5
 32
0
 13
16.41628465777284
 23
-13.5
 33
0
  0
SOLID
  5
109
100
AcDbEntity
  8
front panel
  6
ByBlock
 62
    0
370
   -2
100
AcDbTrace
 10
16
 20
150
 30
0
 11
16.41628465777284
 21
147.5
 31
0
 12
15.58371534222716
 22
147.5
 32
0
 13
15.58371534222716
 23
147.5
 33
0
  0
MTEXT
  5
10A
100
AcDbEntity
  8
front panel
  6
CONTINUOUS
 62
    0
370
   -2
100
AcDbMText
 10
14.125
 20
67
 30
0
 40
2.5
 41
4.444444444444755
 71
    5
 72
    1
  1
166
  7
standard
210
0
220
0
230
1
 50
90
 73
    2
 44
1
  0
ENDBLK
  5
8D
330
8B
100
AcDbEntity
  8
0
100
AcDbBlockEnd
  0
BLOCK
  5
8F
330
8E
100
AcDbEntity
  8
0
100
AcDbBlockBegin
  2
base
 70
    0
 10
0
 20
0
  3
base
  1

  0
LWPOLYLINE
  5
10B
100
AcDbEntity
  8
case
  6
ByLayer
 62
  256
370
   -1
100
AcDbPolyline
 90
    5
 70
    1
 43
0
 10
0
 20
0
 10
368
 20
0
 10
368
 20
16
 10
0
 20
16
 10
0
 20
0
  0
ENDBLK
  5
90
330
8E
100
AcDbEntity
  8
0
100
AcDbBlockEnd
  0
BLOCK
  5
92
330
91
100
AcDbEntity
  8
0
100
AcDbBlockBegin
  2
side
 70
    0
 10
0
 20
0
  3
side
  1

  0
LWPOLYLINE
  5
10C
100
AcDbEntity
  8
case
  6
ByLayer
 62
  256
370
   -1
100
AcDbPolyline
 90
    5
 70
    1
 43
0
 10
0
 20
0
 10
0
 20
150
 10
16
 20
150
 10
16
 20
0
 10
0
 20
0
  0
ENDBLK
  5
93
330
91
100
AcDbEntity
  8
0
100
AcDbBlockEnd
  0
BLOCK
  5
95
330
94
100
AcDbEntity
  8
0
100
AcDbBlockBegin
  2
Base
 70
    0
 10
0
 20
0
  3
Base
  1

  0
INSERT
  5
10D
100
AcDbEntity
  8
0
  6
ByLayer
 62
  256
370
   -1
100
AcDbBlockReference
  2
base
 10
0
 20
0
 30
0
 41
1
 42
1
 43
0
 50
0
 70
    1
 71
    1
 44
0
 45
0
  0
DIMENSION
  5
10E
100
AcDbEntity
  8
case
  6
ByLayer
 62
  256
370
   -1
100
AcDbDimension
 10
368
 20
0
 30
0
 11
184
 21
1.875
 31
0
 70
   32
 71
    5
  3
Standard
 53
0
210
0
220
0
230
1
100
AcDbAlignedDimension
 13
0
 23
0
 33
0
 14
368
 24
0
 34
0
100
AcDbRotatedDimension
  0
ENDBLK
  5
96
330
94
100
AcDbEntity
  8
0
100
AcDbBlockEnd
  0
ENDSEC
  0
SECTION
  2
ENTITIES
  0
LWPOLYLINE
  5
10F
100
AcDbEntity
  8
0
  6
ByLayer
 62
    0
370
   -1
100
AcDbPolyline
 90
    5
 70
    1
 43
0
 10
0
 20
0
 10
-86
 20
0
 10
-86
 20
150
 10
0
 20
150
 10
0
 20
0
  0
LWPOLYLINE
  5
110
100
AcDbEntity
  8
0
  6
ByLayer
 62
    0
370
   -1
100
AcDbPolyline
 90
    2
 70
    0
 43
0
 10
-86
 20
0
 10
-336
 20
0
  0
LWPOLYLINE
  5
111
100
AcDbEntity
  8
0
  6
ByLayer
 62
    0
370
   -1
100
AcDbPolyline
 90
    3
 70
    0
 43
0
 10
-336
 20
0
 10
-336
 20
2
 10
-86
 20
2
  0
LWPOLYLINE
  5
112
100
AcDbEntity
  8
0
  6
ByLayer
 62
    0
370
   -1
100
AcDbPolyline
 90
    4
 70
    0
 43
0
 10
-96
 20
2
 10
-96
 20
122
 10
-196
 20
122
 10
-196
 20
2
  0
INSERT
  5
113
100
AcDbEntity
  8
case
  6
ByLayer
 62
  256
370
   -1
100
AcDbBlockReference
  2
side
 10
16
 20
0
 30
0
 41
-1
 42
1
 43
0
 50
0
 70
    1
 71
    1
 44
0
 45
0
  0
INSERT
  5
114
100
AcDbEntity
  8
case
  6
ByLayer
 62
  256
370
   -1
100
AcDbBlockReference
  2
side
 10
-336
 20
0
 30
0
 41
-1
 42
1
 43
0
 50
0
 70
    1
 71
    1
 44
1
 45
1
  0
DIMENSION
  5
115
100
AcDbEntity
  8
case
  6
ByLayer
 62
  256
370
   -1
100
AcDbDimension
  2
*D1
 10
-352
 20
150
 30
0
 11
-353.875
 21
75
 31
0
 70
   33
 71
    5
  3
Standard
 53
0
210
0
220
0
230
1
100
AcDbAlignedDimension
 13
-352
 23
0
 33
0
 14
-352
 24
150
 34
0
  0
DIMENSION
  5
116
100
AcDbEntity
  8
case
  6
ByLayer
 62
  256
370
   -1
100
AcDbDimension
  2
*D2
 10
0
 20
3.918740332231607e-015
 30
0
 11
-1.875
 21
75
 31
0
 70
   33
 71
    5
  3
Standard
 53
0
210
0
220
0
230
1
100
AcDbAlignedDimension
 13
16
 23
150
 33
0
 14
16
 24
0
 34
0
  0
DIMENSION
  5
117
100
AcDbEntity
  8
0
  6
ByLayer
 62
  256
370
   -1
100
AcDbDimension
  2
*D3
 10
-86
 20
0
 30
0
 11
-43
 21
1.875
 31
0
 70
   33
 71
    5
  3
Standard
 53
0
210
0
220
0
230
1
100
AcDbAlignedDimension
 13
0
 23
0
 33
0
 14
-86
 24
0
 34
0
  0
DIMENSION
  5
118
100
AcDbEntity
  8
0
  6
ByLayer
 62
  256
370
   -1
100
AcDbDimension
  2
*D4
 10
-336
 20
2
 30
0
 11
-211
 21
3.875
 31
0
 70
   33
 71
    5
  3
Standard
 53
0
210
0
220
0
230
1
100
AcDbAlignedDimension
 13
-86
 23
0
 33
0
 14
-336
 24
0
 34
0
  0
DIMENSION
  5
119
100
AcDbEntity
  8
0
  6
ByLayer
 62
  256
370
   -1
100
AcDbDimension
  2
*D5
 10
-196
 20
122
 30
0
 11
-146
 21
123.875
 31
0
 70
   33
 71
    5
  3
Standard
 53
0
210
0
220
0
230
1
100
AcDbAlignedDimension
 13
-96
 23
122
 33
0
 14
-196
 24
122
 34
0
  0
DIMENSION
  5
11A
100
AcDbEntity
  8
0
  6
ByLayer
 62
  256
370
   -1
100
AcDbDimension
  2
*D6
 10
-196
 20
122
 30
0
 11
-197.875
 21
62
 31
0
 70
   33
 71
    5
  3
Standard
 53
0
210
0
220
0
230
1
100
AcDbAlignedDimension
 13
-196
 23
2
 33
0
 14
-196
 24
122
 34
0
  0
INSERT
  5
11B
100
AcDbEntity
  8
case
  6
ByLayer
 62
  256
370
   -1
100
AcDbBlockReference
  2
Base
 10
16
 20
-16
 30
0
 41
-1
 42
1
 43
0
 50
0
 70
    1
 71
    1
 44
0
 45
0
  0
LWPOLYLINE
  5
11C
100
AcDbEntity
  8
case
  6
ByLayer
 62
  256
370
   -1
100
AcDbPolyline
 90
    2
 70
    0
 43
0
 10
0
 20
0
 10
0
 20
0
  0
LWPOLYLINE
  5
11D
100
AcDbEntity
  8
front panel
  6
ByLayer
 62
  256
370
   -1
100
AcDbPolyline
 90
    5
 70
    1
 43
0
 10
16
 20
-16
 10
16
 20
150
 10
-352
 20
150
 10
-352
 20
-16
 10
16
 20
-16
  0
CIRCLE
  5
11E
100
AcDbEntity
  8
front panel
  6
ByLayer
 62
  256
370
   -1
100
AcDbCircle
 10
-146
 20
62
 40
50
  0
CIRCLE
  5
11F
100
AcDbEntity
  8
front panel
  6
ByLayer
 62
  256
370
   -1
100
AcDbCircle
 10
-276
 20
62
 40
50
  0
CIRCLE
  5
120
100
AcDbEntity
  8
front panel
  6
ByLayer
 62
  256
370
   -1
100
AcDbCircle
 10
-320
 20
134
 40
6
  0
DIMENSION
  5
121
100
AcDbEntity
  8
front panel
  6
ByLayer
 62
  256
370
   -1
100
AcDbDimension
  2
*D7
 10
-325.9887484289998
 20
134.3672768086226
 30
0
 11
-319.8852259973054
 21
135.8714838840625
 31
0
 70
   35
 71
    5
 72
    0
  3
Standard
 53
0
210
0
220
0
230
1
100
AcDbDiametricDimension
 15
-314.0112515710002
 25
133.6327231913774
 35
0
 40
0
  0
DIMENSION
  5
122
100
AcDbEntity
  8
front panel
  6
ByLayer
 62
  256
370
   -1
100
AcDbDimension
  2
*D8
 10
-325.9973764383672
 20
61.48779957028223
 30
0
 11
-276.0192075161144
 21
63.87490161643877
 31
0
 70
   35
 71
    5
 72
    0
  3
Standard
 53
0
210
0
220
0
230
1
100
AcDbDiametricDimension
 15
-226.0026235616328
 25
62.51220042971777
 35
0
 40
0
  0
DIMENSION
  5
123
100
AcDbEntity
  8
front panel
  6
ByLayer
 62
  256
370
   -1
100
AcDbDimension
  2
*D9
 10
-96.00039367398202
 20
61.80158819787348
 30
0
 11
-145.9925595574203
 21
63.87498523722567
 31
0
 70
   35
 71
    5
 72
    0
  3
Standard
 53
0
210
0
220
0
230
1
100
AcDbDiametricDimension
 15
-195.999606326018
 25
62.19841180212651
 35
0
 40
0
  0
DIMENSION
  5
124
100
AcDbEntity
  8
front panel
  6
ByLayer
 62
  256
370
   -1
100
AcDbDimension
  2
*D10
 10
-325.7500000000243
 20
61.50000000000459
 30
0
 11
-330.7500000000247
 21
63.37500000000459
 31
0
 70
   32
 71
    5
 72
    0
  3
Standard
 53
0
210
0
220
0
230
1
100
AcDbAlignedDimension
 13
-335.7500000000251
 23
61.25000000000457
 33
0
 14
-325.7500000000243
 24
61.25000000000457
 34
0
100
AcDbRotatedDimension
  0
DIMENSION
  5
125
100
AcDbEntity
  8
front panel
  6
ByLayer
 62
  256
370
   -1
100
AcDbDimension
  2
*D11
 10
-86
 20
58.87477965384475
 30
0
 11
-91
 21
60.74977965384475
 31
0
 70
   32
 71
    5
 72
    0
  3
Standard
 53
0
210
0
220
0
230
1
100
AcDbAlignedDimension
 13
-96
 23
62.11559321277199
 33
0
 14
-86
 24
62.65572880592653
 34
0
100
AcDbRotatedDimension
  0
DIMENSION
  5
126
100
AcDbEntity
  8
front panel
  6
ByLayer
 62
  256
370
   -1
100
AcDbDimension
  2
*D12
 10
-143.3057640637015
 20
1.795061762802107
 30
0
 11
-145.1807640637015
 21
6.897637607634914
 31
0
 70
   32
 71
    5
 72
    0
  3
Standard
 53
0
210
0
220
0
230
1
100
AcDbAlignedDimension
 13
-146.1460999699152
 23
12.00021345246772
 33
0
 14
-146.1479451881382
 24
1.795061762802107
 34
0
 50
90
100
AcDbRotatedDimension
  0
DIMENSION
  5
127
100
AcDbEntity
  8
front panel
  6
ByLayer
 62
  256
370
   -1
100
AcDbDimension
  2
*D13
 10
-273.8965073075548
 20
2.094238723269124
 30
0
 11
-275.7715073075548
 21
7.050898613193553
 31
0
 70
   32
 71
    5
 72
    0
  3
Standard
 53
0
210
0
220
0
230
1
100
AcDbAlignedDimension
 13
-276.8693636643133
 23
12.00755850311798
 33
0
 14
-277.0378653924585
 24
2.094238723269125
 34
0
 50
90
100
AcDbRotatedDimension
  0
DIMENSION
  5
128
100
AcDbEntity
  8
front panel
  6
ByLayer
 62
  256
370
   -1
100
AcDbDimension
  2
*D14
 10
-320.0765087392142
 20
150
 30
0
 11
-318.163275805716
 21
142.0089657653736
 31
0
 70
   33
 71
    5
  3
Standard
 53
0
210
0
220
0
230
1
100
AcDbAlignedDimension
 13
-320
 23
134
 33
0
 14
-320.0765087392142
 24
150
 34
0
  0
DIMENSION
  5
129
100
AcDbEntity
  8
front panel
  6
ByLayer
 62
  256
370
   -1
100
AcDbDimension
  2
*D15
 10
-336.0000460962949
 20
134.081266780327
 30
0
 11
-328.0010117269802
 21
135.9603865564794
 31
0
 70
   33
 71
    5
  3
Standard
 53
0
210
0
220
0
230
1
100
AcDbAlignedDimension
 13
-320
 23
134
 33
0
 14
-336
 24
133.9917599503925
 34
0
  0
CIRCLE
  5
12A
100
AcDbEntity
  8
front panel
  6
ByLayer
 62
  256
370
   -1
100
AcDbCircle
 10
-301.5
 20
134
 40
2.5
  0
CIRCLE
  5
12B
100
AcDbEntity
  8
front panel
  6
ByLayer
 62
  256
370
   -1
100
AcDbCircle
 10
-286.5
 20
134
 40
2.5
  0
DIMENSION
  5
12C
100
AcDbEntity
  8
front panel
  6
ByLayer
 62
  256
370
   -1
100
AcDbDimension
  2
*D16
 10
-304
 20
134
 30
0
 11
-301.5
 21
135.875
 31
0
 70
   35
 71
    5
  3
Standard
 53
0
210
0
220
0
230
1
100
AcDbDiametricDimension
 15
-299
 25
134
 35
0
 40
0
  0
DIMENSION
  5
12D
100
AcDbEntity
  8
front panel
  6
ByLayer
 62
  256
370
   -1
100
AcDbDimension
  2
*D17
 10
-289
 20
134
 30
0
 11
-286.5
 21
135.875
 31
0
 70
   35
 71
    5
  3
Standard
 53
0
210
0
220
0
230
1
100
AcDbDiametricDimension
 15
-284
 25
134
 35
0
 40
0
  0
DIMENSION
  5
12E
100
AcDbEntity
  8
front panel
  6
ByLayer
 62
  256
370
   -1
100
AcDbDimension
  2
*D18
 10
-301.5
 20
134
 30
0
 11
-310.75
 21
135.875
 31
0
 70
   32
 71
    5
  3
Standard
 53
0
210
0
220
0
230
1
100
AcDbAlignedDimension
 13
-320
 23
134
 33
0
 14
-301.5
 24
134
 34
0
100
AcDbRotatedDimension
  0
DIMENSION
  5
12F
100
AcDbEntity
  8
front panel
  6
ByLayer
 62
  256
370
   -1
100
AcDbDimension
  2
*D19
 10
-286.5
 20
134
 30
0
 11
-294
 21
135.875
 31
0
 70
   32
 71
    5
  3
Standard
 53
0
210
0
220
0
230
1
100
AcDbAlignedDimension
 13
-301.5
 23
134
 33
0
 14
-286.5
 24
134
 34
0
100
AcDbRotatedDimension
  0
DIMENSION
  5
130
100
AcDbEntity
  8
front panel
  6
ByLayer
 62
  256
370
   -1
100
AcDbDimension
  2
*D20
 10
16
 20
-16
 30
0
 11
-168
 21
-14.125
 31
0
 70
   32
 71
    5
  3
Standard
 53
0
210
0
220
0
230
1
100
AcDbAlignedDimension
 13
-352
 23
-16
 33
0
 14
16
 24
-16
 34
0
100
AcDbRotatedDimension
  0
DIMENSION
  5
131
100
AcDbEntity
  8
front panel
  6
ByLayer
 62
  256
370
   -1
100
AcDbDimension
  2
*D21
 10
16
 20
150
 30
0
 11
14.125
 21
67
 31
0
 70
   33
 71
    5
  3
Standard
 53
0
210
0
220
0
230
1
100
AcDbAlignedDimension
 13
16
 23
-16
 33
0
 14
16
 24
150
 34
0
  0
ENDSEC
  0
SECTION
  2
OBJECTS
  0
DICTIONARY
  5
C
330
0
100
AcDbDictionary
281
    1
  3
ACAD_GROUP
350
D
  0
DICTIONARY
  5
D
330
C
100
AcDbDictionary
281
    1
  0
ENDSEC
  0
EOF
